<?xml version="1.0" encoding="utf-8"?>
<!-- Generator: Adobe Illustrator 21.0.0, SVG Export Plug-In . SVG Version: 6.00 Build 0)  -->
<svg version="1.1" id="Capa_1" xmlns="http://www.w3.org/2000/svg" xmlns:xlink="http://www.w3.org/1999/xlink" x="0px" y="0px"
	 viewBox="0 0 172.9 222.3" style="enable-background:new 0 0 172.9 222.3;" xml:space="preserve">
<style type="text/css">
	.st0{fill:#434882;}
	.st1{fill:#404153;}
	.st2{fill:#D7D1D6;}
</style>
<g>
	<path class="st0" d="M24.1,179.1c-0.2-0.2-0.2-0.3-0.1-0.5c1.8-3.9-1.4-6.3-3.2-8.5c-8.4-10.5-10.1-23.5-11.6-35.8
		c-1.1-9.7,0.5-20.2,4.8-29.7c3.3-7.1,6.1-14.3,5.7-22.5c-0.5-9.6,0.1-19.2-2-28.8c-1.3-6-5.1-10.7-6.6-16.8
		c8.8,0,17.1-2.2,25.4-4.2c9.3-2.2,18.2-5.6,27-9.1c3.5-1.4,8.1-2.8,8.4-8c0,0,0,0.1,0,0.1c1.2,0.4,3.1,1.9,3.5,1
		c1.5-3.3,5.5-3.2,7.1-6c1.3-2.3,2.8-1.5,4.9-1.3c3.7,0.4,3.4,4.3,5.9,5.5c7.5,3.7,13.5,10,21.7,12.7c5.1,1.6,9.7,5.3,14.9,6.3
		c9.2,1.8,18.2,4.8,27.7,4.9c5.1,0.1,6.6,2.5,3.3,6.6c-3.9,4.8-1.2,12.1-6.5,16.1c-0.2,0.1-0.2,0.7-0.1,1c1.7,7.1,0.7,14.3,0.8,21.5
		c0,1.6,0.3,3.4,1.5,4.1c2.3,1.2,2,3.3,2.1,5.1c0.2,2.5,0.5,4.9,1.7,7.2c5.4,10.3,7.4,21.4,7.5,32.8c0,2.7,0,5.3-0.3,7.9
		c-0.1,0.8-1,1.8-1.8,2.2c-1.3,0.6-1.6-0.7-2-1.6c-0.5-1.1-1.6-2.5-2.5-1.7c-2.6,2.4-7.1,3.4-6.6,8.3c0,0-0.2-0.2-0.2-0.2
		c-1.1-0.5-2.5-0.7-3.3,0.1c-3.6,3.6-8.1,5.4-12.9,6.5c-2.1,0.5-1.1,1.9-1.2,3.1c-0.3,0.3-0.5,0.5-0.8,0.8c-5-1.3-8.8,2.6-13.3,3
		c-0.5,0-1,0.1-1.6,0.1c-4.4-0.8-8.6,1.2-12.3,2.5c-5.5,2-11.5,4.5-14,11.2c-1.6,4.4-0.8,8.6-0.1,12.7c0.4,2.4,3.6,2.3,5.8,3
		c0.4,0.1,1,0.5,1.1,0.9c1.7,5.4,5.8,4,9.6,3.6c2.6-0.3,5.2-0.7,7.8-0.5c3.9,0.2,5.3-1.7,5.3-5.3c0.5-0.3,1.1-0.5,1.6-0.8
		c10.4-2.3,17.2-10.1,24.3-17c2.7-2.6,5.2-5.1,8.8-7.9c-0.3,2-0.1,3.4-0.7,4.1c-3.7,4.1-6,9.3-9,13.8c-1.1,1.6-4.4,1.9-3.3,4.9
		c0,0,0,0,0,0c-2.3-1.1-4.3-2.7-5.6,1.6c-0.5,1.7-2.5,3.7-5,4.4c-10.1,3.1-20.2,6.4-30.3,9.7c-4.5,1.5-9,3-10.8,8.2
		c-0.6,1.8-2.1,2.2-3.5,0.9C83,204.5,73,203.6,63.5,201c-4.9-1.4-10.5-2.2-14.5-5.6c-4.3-3.7-9.8-5.6-14-9.6
		C32,182.9,28.9,179.5,24.1,179.1z M44.5,93.9c-0.2,0-0.5,0-0.7-0.1c0.2,0.2,0.4,0.4,0.5,0.6c-0.5,1.5,0.4,3.4-1.2,4.6
		c-5.5,5.2-7.4,12-4.9,18.5c0,0.3-0.1,0.6-0.3,0.9c-1,1.5-1.9,3.1-3,4.6c-1.2,1.8-4.2,2.9-2,5.8c1.7,2.2,0.2,5,1.8,7.1
		c0.6,0.9,1.5,1.5,2.5,1.4c8-0.4,15.1,3,22.5,5.4c3,1,6.2,1.9,8.5-1.4c0.5,0,1,0.1,1.4,0.1c0.9,4.1,4.6,4,7.3,4.4
		c3.8,0.5,6.7,2.2,9.4,4.6c-0.7,0.4-1.8,0.6-2,1.2c-1.5,3.2-2.8,4.1-4.2,0c-0.1-0.4-1-0.6-2-1.1c0.1,3.7,0.7,6.8,1.7,9.8
		c0.3,0.8-0.3,1.9,1.3,2c1.3,0,1.6-0.7,1.9-1.7c1.1-3.4,2.3-6.8,3.4-10.2c1.4-0.2,2.6,0,4.1-0.7c8.6-4.2,17.6-7.4,27.2-8.2
		c3.5-0.3,4.4-1.1,4-4.1c7.2-0.4,14-2.3,20.7-4.7c2.1-0.7,2.4-2.1,2.2-3.9c-0.5-3.5-1.2-6.9-2.9-10c-1.4-2.6-3-5.3-2.9-8.4
		c0.1-4-2.1-6.4-5.3-8.2c0-0.8,0.1-1.7,0.1-2.5c1.3-0.8,1-1.7,0-2.5c0-0.3,0.1-0.6,0.1-0.8c-2.7-12.1-1.4-10.7-13.8-12.2
		c-1.9-0.2-3.1,0.6-4.5,1.2c-1.8,0.7-3.6,0.7-5.2-0.5c-1.9-1.4-0.7-3.1-0.1-4.5c1.1-2.6,1.2-5.1-0.1-7.7l0.3,0.2
		c0.9,0.1,2.5,0.6,2.6-0.4c0.1-1.4-0.4-3.3-2.7-3.1c-0.3,0.5-0.5,0.6-0.8,0c-2.4-0.2-4.6-0.2-2.8,3.2c0.1,0.4,0.1,0.8,0.2,1.2
		c-0.1,0.7-0.1,1.4-0.2,2.1c-0.2,0-0.5,0-0.7,0.1c-3.4-0.7-4.6,1.8-6,4c-4.4-0.5-6,3.3-7.6,5.8c-2.1,3.2-3.8,3.7-6.8,2.1
		c-5.8-3.1-12.6-2.6-18.4-1.9c-4.2,0.5-8.5,1-12.8,1.6c-3.3,0.5-8.4-0.2-9,5.4l-0.4-0.2l0-0.5c-0.3,0.4-0.7,0.8-1,1.2l0.4,0
		L44.5,93.9z M56,62.3c-0.2-0.6-0.5-0.8-1.1-0.7c-0.1,0-0.1,0.3-0.2,0.4C55.1,62.1,55.6,62.1,56,62.3c0.2,0.1,0.4,0.4,0.6,0.6
		c0.1-0.1,0.2-0.2,0.3-0.3C56.6,62.4,56.3,62.4,56,62.3z M135.3,148.8c0.5-3.4-1.7-4.7-4.3-4.4c-2.5,0.3-0.7,2.6-0.7,4
		c0,1.4,0.6,2.9,0.9,4.3c0.6,2.5,2,1.4,3.3,0.8c1.4-0.6,3.4-0.9,0.7-2.6C135.2,150.2,135.2,149.5,135.3,148.8z M106.7,154.2
		c0-0.6-0.1-1.2-0.1-1.8c0.9-0.3,2.1-0.2,2-1.7c-0.1-1.1-1-1.1-1.8-1.2c-2.6-0.4-4.3,1.3-6.1,2.7c-0.8,0.6-0.9,1.8,0.2,1.8
		c2.9-0.1,1.9,2.1,2.2,3.4c0.9,4,2.6,4.6,6.6,1.6C107.5,158,105.8,156.8,106.7,154.2z M43,60.3c-1-0.1-2.2-2-2.8-0.3
		c-0.9,2.6,0.9,4.7,2.9,5.8c1.8,1.1,5.7,2.4,6,0.2c0.8-4.9,2.7-0.1,4.2-1c-1.1-4-2.5-7.7-6.5-10.1c-0.7,2,1.3,3,0.4,4.4
		c-2.3-0.1-2.1-3.8-4.4-2.7c-1.7,0.9,0.9,2.2,0.3,3.4L43,60.3z M40.8,158.5c0.4-2.2-1.1-2.1-2.6-2.1c-0.8-0.4-1.6-0.8-2.4-1.2
		c-0.2-0.8-0.2-1.8-0.7-2.3c-3.7-4.2-9.1-6.6-12.3-11.4c-0.5-0.8-1.7-1-2.6-0.1c-1,1-2.5,1.8-2.1,3.6c1.7,9.4,3.8,18.6,9,26.7
		c0.9,1.4,1.9,3.6,4.1,1.3c0.2,0.2,0.5,0.4,0.7,0.6c0.1,1.1-0.3,2.7,0.3,3.4c3.9,4.7,9.3,7.6,13.9,11.4c2,1.7,5.5,1.5,7.7,3.1
		c8.4,5.8,17.3,5.5,26.8,4.1c5.7-0.8,7.7-5.3,9.1-8.6c2.2-5-1.8-10.4-2.8-15.7c-0.5-2.4-4.1-1.2-6.1-2.2c-1.5-0.8-3.1-1.2-4-2.7
		c-0.7-1.3-1.8-1.6-3.3-1.4c-5.4,0.7-10.2-2.3-15.3-3.4C52.5,160.4,47,157.9,40.8,158.5L40.8,158.5z M127.1,59.6
		c1,1,0.6,2.1-0.1,2.8c-3.3,3.4-1.4,5.6,1.7,7.2c3.7,1.8,6.4,4.2,8.5,7.9c0.9,1.6,3.4,4.6,6.4,2.1c1.8-1.6,3.6-3.5,4.7-5.6
		c0.8-1.6,2.3-3.7-0.5-5.6c-2.9-2-3.5,0.9-4.5,1.9c-0.8,0.9-1,2.7-2.7,1.9c-1.4-0.7-1-2.3-0.6-3.6c0.3-0.8,0.6-1.5,0.9-2.3
		c0.5-1.1,1.2-2.2,0.2-3.2c-1.3-1.5-2.4,0.2-3.5,0.4c-1.1,0.2-2.2,0.7-2.9,1.8c-1.3,2.1-2.8,4.3-5.4,2.2c-2.8-2.3-0.4-3.8,1.2-5.6
		c1-1.1,2.5-3.1,1-4.3c-1.6-1.3-4.9-2.9-5.9-2.2c-2.4,1.7-4,4.2-7.5,3.4c-0.2-0.1-1.4,2.3-2.9,1c-1.2-1,0.5-2,0.5-3.2
		c-0.1-2,3-4.9,0.8-5.6c-3.1-0.9-2.4,3.2-3.1,5c-1.7,4.3-0.3,6.8,3.7,5.9c3.4-0.8,4,0.6,4.3,3.3C124.5,63.9,123.9,59.9,127.1,59.6z
		 M41.8,72.6c-0.9-0.8-1.7-1.5-2.5-2.2c-0.8-0.8-1.7-1.5-2.5-2.4c-1.4-1.7-2.4-4.8-4-5c-2.1-0.4-3.5,2.2-4.1,4.6
		c-0.3,1.2-1.7,0.5-2.6,0.9c-2.6,1.2-3,2.9-1.3,5.1c0.9,1.2,2.2,2.1,2.9,3.4c1,1.7,2,3.4,4.1,3.1c2.2-0.4,3.1-2.2,3-4.5
		c-0.2-2.3,1.2-2.8,3.2-2.7C39.3,73,40.6,73.8,41.8,72.6z M64.4,51.9c-1.4-3.4-4.4-4.7-7.2-3.2c-2.2,1.2-5.5,1.7-6.2,4.6
		c-0.7,2.9,0.8,5.2,4,6.9c-0.3-2-0.2-3.7-0.8-4.9c-0.7-1.3-0.8-2.3,0.5-2.8c1.4-0.4,2.9-0.5,3.5,1.5c0.3,0.9,1,1.9,0.4,2.8
		c-1.3,2.2,0.3,2.1,1.7,2.9c4.1,2.4,6.6-2.2,10.6-1.4c-3.2-3.3-1.4-8.3-5.2-10.8C63.9,48.7,65.6,50.5,64.4,51.9z M126.1,48.2
		c4.7-0.8,7.7,2.7,11.9,3.1c3.1,0.3,4.2-1.7,5.9-2.9c1.3-0.9,0.8-2.7-0.4-3.4c-1.7-1-3.2-3.8-5.8-1c-0.5,0.5-3.3,1.8-3.2-1.4
		c0-1.2,0.3-2.6-1.4-2.6c-1.3,0-3.4,0.5-3.3,1.6C129.8,44.6,126.8,45.2,126.1,48.2z M69.7,34.4c2,2.9,5.4,2.9,8.1,4.5
		c1.5,0.9,3.5,1.6,4.6-0.8c1.4-3.2,0.7-6.1-1.9-8.4c-2.2-2.1-3.3,0.5-4.2,1.5c-1.4,1.6-1.9,4-3.9,0.4c-1.1-2.1-3.7-1.6-5.4-0.9
		c-1.9,0.7-1.1,2.8-0.7,4.4c0.4,1.7,0.8,3.3,1.3,5.2C70,38.7,68,36.5,69.7,34.4z M99.8,37c-2.1,3-3.5-0.8-4.5,1.5
		c-0.3,0.7,0.2,2.1,1,1.9c4-0.8,7.6,0.9,11.3,1.6c1,0.2,1.9-1.1,1.8-2.5c-1.3-0.9-3.3,1.8-4.2-0.7c-0.4-1.1-0.4-2.2,0.2-3.3
		c1.4-2.6,3,1.1,4.7-0.2c-1.3-3.3-3.3-3.2-5.9-1.9c-0.9,0.4-2.2,2.3-3.1,0c-1.1-2.7-3.1-3.4-4.9-1.5c-2.1,2.1,0.4,3.4,1.9,4.5
		C98.4,36.7,99.1,36.7,99.8,37z M63.4,153.1c-1.3-4.7-1.7-5.7-2.7-5.5c-2.5,0.7-1.3,3.4-2.5,4.9c-0.4,0.5-0.3,1.3-0.5,1.9
		c-1,2.7-0.7,3.8,2.2,1.9c3.6-2.4,1,3,3.2,2.6c1.1-0.2,2.4-0.4,2.4-1.4c0-2.9,2.7-5.7,0.5-9.4C65.1,150,64.4,151.2,63.4,153.1z
		 M111.9,39c-0.1,4.7,1.7,6.2,5.6,4.8c2.1-0.8,3.4-2.8,5.8-3.2c1.1-0.2,0.4-1.6,0.5-2.5c0-0.5-0.3-1.9-0.8-1.3
		c-2.4,2.7-3.1-0.8-4.2-1.3c-1.8-0.9-3.1-1.4-5-0.6C111.7,35.8,112,37.5,111.9,39z M43.9,145.8c2-1,3.1,0.2,4.4,0.1
		c0.4,0,1-0.3,1.2-0.6c0.2-0.4,0.1-1.3-0.1-1.4c-2.1-0.4-4.2-1-6.3-1c-1.5,0-2.5,1.8-2.1,2.9c1.2,3.5-2.2,3.5-4,5.1
		c3.2,1.6,5.9,3.5,8.7,0.5C48.3,148.8,44.7,147.8,43.9,145.8z M54.6,157.6c0.3-3.2,0.6-6.4,0.9-9.5c0.1-1.1-0.2-2-1.3-2.3
		c-0.8-0.2-1.6-0.1-2.1,0.8c-1.4,2.8-4.2,4.8-5.2,9.5C51.1,152.3,52.7,154.7,54.6,157.6z M99.5,46.6c-2.4,1.5-2.2,4.2-3.1,6.4
		c-0.6,1.3-1.4,3.1,0.2,4c0.9,0.6,2.6,0.3,3.8-0.1c1.4-0.5,2.7-1.7,2.3-3.4C102,51,102.3,48.1,99.5,46.6z M79.3,57.1
		c0.3-3.9-3.4-6.2-2.7-10c0.2-1.2-1.5-1.8-2.7-1.4c-1.2,0.4-0.8,1.5-0.6,2.5c0.3,1.4,0.3,3,0.6,4.4c0.4,1.9-1.7,4.3,0.1,5.6
		C75.8,59.6,77.3,56.3,79.3,57.1z M116.3,155.7c1.4,0.6,2.5,2.2,2.6-0.4c0.1-2.3-3.9-6.3-6.5-6.1c-2,0.2-2.4,2.1-2.4,3.6
		C110.1,158.8,113.5,157.4,116.3,155.7z M51.5,43.8c0.5-3.4,4.5-1.7,4.9-3c0.7-2.3-0.3-5.1-1.6-7.3c-1.6,0.8,0,2.7-1.5,3.4
		c-1.6-0.1-1.1-3.3-3.2-2.2c-2,1-0.5,2.6-0.3,3.9C50.1,40.1,49.7,41.9,51.5,43.8z M46.5,36.5c-2.6-1.9-4.9-0.6-6,1.1
		c-1.7,2.7,1.1,4.4,2.9,6.6c-0.6-2.8,2.4-2.4,3.1-4.1c-0.8-1.3-2.7,0.2-3.3-1.3C43.3,36.7,45.6,37.8,46.5,36.5z M61.7,43.1
		C64.1,35,62.5,31,56.9,32C61.9,34.2,60.6,38.8,61.7,43.1z M97.7,159.8c-1.4-2.4-0.7-5-1.1-7.4c-0.1-0.6-0.7-1.1-1.2-1.5
		c-0.1-0.1-1.1,0.5-1.1,0.6C95.3,154.3,92.2,158.5,97.7,159.8z M106.6,59.8c0.5-3.8-0.2-7.2,2.5-9.5c0.8-0.7,0.2-1.2-0.2-1.6
		c-0.5-0.4-1-0.5-1.8,0C104.7,50.3,104,56.5,106.6,59.8z M81.4,56.4c5.3,0.2,6.3-1.3,4-5.8C83.7,52.3,84.7,55.8,81.4,56.4z
		 M89.2,152.6c0.3,2.8-1.2,5.3,0.8,7.6c0.1,0.1,1.1-0.1,1.2-0.4c0.9-2.4,0.4-4.7-0.8-6.9C90.3,152.8,90.1,152.8,89.2,152.6z
		 M125.2,153.4c1.1-2,0.6-3.6,0.2-5.3C122.3,149.6,122.4,151.2,125.2,153.4z M34.8,46.8c-0.4-1.8-0.9-3.5-1.4-5.4
		C31.1,43.6,32.2,45.3,34.8,46.8z"/>
	<path class="st1" d="M146,186.4c-1-3,2.2-3.3,3.3-4.9c3.1-4.6,5.3-9.7,9-13.8c0.6-0.7,0.4-2.1,0.7-4.1c-3.5,2.9-6.1,5.4-8.8,7.9
		c-7.1,6.9-13.9,14.7-24.3,17c-0.3-2.4-2.1-2.1-3.8-2.1c-1.5,0-3,0.3-4.5,0c-1.3-0.2-2.8,0.6-4.1-1.2c7.3-2.2,15.7,0.6,22-5.9
		c-7,1.5-13.7,1.7-20.4,1.3c5.9-2.5,12.2-2.7,18.4-3c3.5-0.2,5.9-1,8.1-3.9c1.8-2.4,2.3-6.1,6.4-6.9c0.7-0.1,3.7-2.1,2.9-4.8
		l-0.1,0.1c0.3,0.1,0.8,0.3,0.9,0.2c2.6-5.4,3.8-11.3,7.7-17.1c-2.3,1.1-3.7,1.8-5.1,2.5c-0.5-4.9,4.1-5.9,6.6-8.3
		c0.9-0.9,2,0.6,2.5,1.7c0.4,0.9,0.7,2.2,2,1.6c0.8-0.4,1.7-1.4,1.8-2.2c0.3-2.6,0.4-5.3,0.3-7.9c-0.1-11.5-2.1-22.6-7.5-32.8
		c-1.2-2.3-1.5-4.7-1.7-7.2c-0.1-1.9,0.3-3.9-2.1-5.1c-1.2-0.7-1.5-2.5-1.5-4.1c-0.1-7.2,0.9-14.4-0.8-21.5c-0.1-0.3-0.1-0.8,0.1-1
		c5.4-4,2.6-11.2,6.5-16.1c3.3-4,1.8-6.5-3.3-6.6c-9.5-0.1-18.5-3.1-27.7-4.9c-5.2-1-9.7-4.7-14.9-6.3c-8.3-2.6-14.2-9-21.7-12.7
		c-2.5-1.2-2.2-5.1-5.9-5.5c-2.1-0.2-3.6-1.1-4.9,1.3c-1.6,2.8-5.6,2.7-7.1,6c-0.4,0.9-2.3-0.6-3.5-1c1.6-3.8,4-6.7,8.4-7.5
		c0.9-0.2,1.8-1.4,2.5-2.3c3.1-4.5,5.6-2.9,8.9,0.1c4.3,3.9,8.5,8,13.6,11.2c8.5,5.4,17.7,9.2,27.1,12.2c7.1,2.3,14.6,4.3,22.3,4.4
		c4,0.1,8.1,0,12.1-0.2c3.9-0.2,4.2,1.5,2.7,4.4c-3.2,6.2-5.3,12.9-7.9,19.2c-1.3,3.3-0.8,8.9-1,13.4c-0.3,11,2.5,21.6,5,32.1
		c0.7,3.1,2.7,6.8,4.4,10.1c2.4,4.8,2.8,10.5,3,15.9c0.7,18.6-4,36-15.7,50.5C154.8,181.7,152.2,187.7,146,186.4z M161.9,145
		c1,4.9-0.4,8.2-2.5,11.6c-1,1.6-0.7,3.8,1.8,4.3c2.4,0.4,2.5-1.6,2.7-3.3c0.2-1.4-0.2-2.8,1-4.2C167.6,150.3,166.9,147.6,161.9,145
		z"/>
	<path class="st1" d="M71.9,15.2c-0.3,5.2-4.9,6.6-8.4,8c-8.8,3.5-17.7,6.9-27,9.1c-8.3,2-16.6,4.2-25.4,4.2
		c1.6,6.1,5.3,10.8,6.6,16.8c2.1,9.6,1.6,19.2,2,28.8c0.4,8.2-2.4,15.4-5.7,22.5c-4.4,9.5-6,20-4.8,29.7
		c1.5,12.3,3.2,25.3,11.6,35.8c1.8,2.3,5,4.6,3.2,8.5c-3.6-0.6-9.7-7-9.9-10.6c-0.1-1.4-0.4-2.6-1.1-3.8c-4.7-8-6-17-7.1-26
		c-0.1-0.5,0.1-1.2-0.1-1.5c-5-5.6,0.5-10.9,0.4-16.4c-0.1-10.3,6.7-19,6.8-29.2c0-0.5-0.1-1.1,0.1-1.5c4.6-8.3,2.5-17,1.5-25.7
		c-0.3-2.6-1.3-5.1,0.1-7.8c0.3-0.6,0.3-1.9-0.2-2.3C8.9,47.6,7.7,39.1,2.8,32.1c3.1-1,5.7-0.9,8.6-0.4c4.2,0.6,8.5,0.8,12.8-1
		c4.1-1.7,8.8-1.8,13.1-2.7c8.6-1.8,16.9-5.1,24.5-9.8C64.8,16.3,67.8,13.5,71.9,15.2z"/>
	<path class="st1" d="M24.1,179.1c4.8,0.4,7.9,3.7,11,6.6c4.2,4,9.6,5.9,14,9.6c4,3.4,9.6,4.2,14.5,5.6c9.5,2.6,19.4,3.5,27.4,10.2
		c1.5,1.3,2.9,0.9,3.5-0.9c1.7-5.2,6.3-6.7,10.8-8.2c10.1-3.3,20.1-6.6,30.3-9.7c2.5-0.8,4.5-2.8,5-4.4c1.3-4.3,3.3-2.6,5.6-1.6
		c0.5,3.5-2.7,8.9-5.8,9.9c-8.1,2.7-16.1,5.5-24.2,8.3c-0.3,0.1-0.6,0.6-0.8,0.5c-9.6-1.4-15.1,5.1-20.9,10.8c-2.1,2-2.8,2-4.9,0
		c-3.4-3.1-7.5-5.7-12.1-6.3c-13.2-1.8-25.2-6.9-36.6-13.5c-5.8-3.3-10.6-8-15.6-12.3C23.7,182.5,24.2,180.8,24.1,179.1z"/>
	<path class="st2" d="M100,80.1c1.4-2.2,2.6-4.7,6-4c-0.5,0.9-0.1,1.3,0.8,1.4c0.5,4.2-1.8,7.4-3.7,10.8c-0.6,1.1-1.2,1.8-0.4,2.9
		c-2.9,0.5-2.1,3.4-3.3,5c-2.4,3.1-6.9,4.1-7.9,8.5c-0.1,0.6-1.8,1.4-2.5,1.2c-2-0.6-1.9,0.1-2.2,1.8c-0.8,4.2-3.3,7.4-7.5,9.6
		c-0.1-1.7,0.5-2.8,0.5-4.1c-0.1-3,0.9-6.6,3-8.4c1.6-1.3,2.7-2.1,2.4-4c-0.4-2.2-2.6-1.6-4-2.3c-1-0.4-2.3-0.3-3.4-0.4
		c-1.9-0.2-4.2-1-4.7,2c-0.7,4,2.8,2.7,4.8,3.6c-2.4,2.9-2.2,6.8-3.8,10.5c-2.7-3.6-3.6-7.4-4.4-10.9c-1.3-5.1-3.6-7.8-9-7.3
		c-1.1,0.1-2.4-0.9-3.1,0.5c-0.7,1.4-1,3.8-0.1,4.2c3.9,1.7,1.4,4.5,0.7,5.9c-1,2-0.9,3.7-1.1,5.8c-0.3,3.7,0.6,8-2.9,10.8
		c-0.9,0.7-2.9,0.6-2.7,2.2c0.2,1.8,1.9,2.5,3.6,2.9c1.5,0.4,3.1-0.2,4.7,1.1c1.5,1.2,2.4-1.1,3.6-1.7c1.1-0.5,1.2-2.2,0.7-2.6
		c-4.9-3.7-0.3-7.2,0.1-10.9c0.9,2.8,3.4,4.1,4.9,6.2l-0.1-0.1c-1.3,5.8,1.5,9.6,7.2,12.8c-9,0.1-17-2.4-24.6,0.8
		c7.3,3.2,15.3-0.1,24.1,1.9c-3.7,1.7-6.1-0.2-8.5,0.2c-0.9,0.2-2-0.3-2.6,0.8c2,0.5-0.8,3.3,1.6,3.5c-4-0.8-9,0-11.6-2.9
		c-2.4-2.5-4.2-2.5-6.8-2.2c0,0-0.1,0-0.1,0c-1.4-3.3-3.5-6.6-2.1-10.2c2.1-5.2,2.6-10.7,4.2-16c0.5-1.8,1.2-3.7,0.2-5.6
		c-0.4,0.1-0.6,0.1-0.7,0.2c-0.3,0.4-0.5,0.8-0.8,1.2c-2.5,3.4,1.4,10.4-6.3,10.8c0.1,0.3,0.3,0.8,0.2,0.9c-2,1.8-1.4,4.5-2.3,6.7
		c-1.2,2.7-0.6,6.2-3.7,8.8c0.2-5.1,2.7-9.2,1.6-13.7c0.1-0.3,0.2-0.6,0.3-0.9c3.2-2.7,2.5-6.9,4-10.3c0.4-1,0.7-2.1,2-1.6
		c1,0.4,0.1,1.3,0.1,2.1c0,1.7-2.3,3.1,0,5.6c3.1-7.4,3.4-15.4,7-22.8c1.7,3.9-3.1,6.6,0.2,10.3c0.7-2.2,1.6-3.9,1.7-5.5
		c0.4-3.9,2.2-5,6.1-4.9c4.3,0.1,8.5,0.5,13-1.6c5.7-2.7,12.3,0.3,16.1,5.7c1.4,2,4.4,1.5,5.6-0.9c0.6-1.3,0.2-3,1.8-3.9
		C99.5,87.5,99.7,83.8,100,80.1z M99.1,88.6c-2.6,4-4.2,7.1-4.9,10.6C96.7,96.6,98.9,93.7,99.1,88.6z"/>
	<path class="st1" d="M68.9,120.4c-1.5-2-4-3.4-4.9-6.2c-0.3,3.7-4.9,7.1-0.1,10.9c0.5,0.4,0.4,2-0.7,2.6c-1.2,0.6-2.1,2.9-3.6,1.7
		c-1.6-1.3-3.1-0.8-4.7-1.1c-1.7-0.4-3.4-1.1-3.6-2.9c-0.2-1.6,1.8-1.5,2.7-2.2c3.5-2.8,2.6-7.1,2.9-10.8c0.2-2,0.1-3.7,1.1-5.8
		c0.7-1.4,3.2-4.2-0.7-5.9c-0.9-0.4-0.7-2.8,0.1-4.2c0.7-1.4,2.1-0.4,3.1-0.5c5.4-0.5,7.8,2.2,9,7.3c0.9,3.5,1.7,7.4,4.4,10.9
		c1.6-3.7,1.4-7.6,3.8-10.5c-2-0.9-5.4,0.4-4.8-3.6c0.5-3,2.8-2.2,4.7-2c1.2,0.1,2.4-0.1,3.4,0.4c1.4,0.6,3.7,0.1,4,2.3
		c0.3,1.9-0.8,2.7-2.4,4c-2.1,1.8-3.1,5.3-3,8.4c0.1,1.3-0.6,2.4-0.5,4.1c4.2-2.2,6.7-5.4,7.5-9.6c0.3-1.6,0.2-2.4,2.2-1.8
		c0.7,0.2,2.3-0.6,2.5-1.2c1.1-4.4,5.6-5.5,7.9-8.5c1.2-1.6,0.4-4.5,3.3-5c0.3,0.3,0.6,0.6,1,0.9c-2.6,6.8-4.2,14.3-12.2,17.2
		c-0.9,0.3-1,0.9-1.4,1.7c-1.9,3.9-3.5,8.2-9.2,7.5c-1.1-0.1-1.6,0.6-1.1,2c0.8,2.3-1.9,2.8-2,4.7c-0.1,2.5,3.7,0.3,3.2,2.9
		c-0.2,1-0.3,2.1-0.9,2.7c-0.9,1-1.5,2-1.7,3.5c3.5-0.3,6,2.4,9.2,3c1.6-2.3-1.5-5.9,2.7-7.8c0,1.9-0.4,3.5,0.1,4.7
		c0.6,1.2,1.2,3.6,3.6,2.2c10.1-5.9,22-2.6,33-7.4c-1.2,3.1-3.2,3.1-4.9,3.5c-4.7,1.2-9.4,1.8-14.2,2c-0.6,0-2.2-1.4-1.9,0.7
		c0.1,0.8-0.1,3,2.3,1.9c2.4-1,5-1.4,8-0.8c-0.8,1.6-2.9,0.6-3.3,2c-2,0.9-5.4-1.7-6.3,3.1c2.2-1.6,4.8-1.1,6.2-3.2
		c3.1,0.6,5.9-1.1,8.8-1.1l0.1,0.1c0.3,3.1-0.5,3.8-4,4.1c-9.5,0.9-18.6,4-27.2,8.2c-1.5,0.8-2.8,0.5-4.1,0.7c0,0-0.1,0-0.1,0
		c-2.7-2.4-5.6-4.1-9.4-4.6c-2.8-0.4-6.5-0.3-7.3-4.4c1.4-0.4,2.5,1.7,4.1,0.5c-2.5-1.5-5.3-0.9-7.9-1.5l0.1,0.1
		c-2.5-0.3,0.3-3-1.6-3.5c0.7-1,1.7-0.6,2.6-0.8c2.4-0.5,4.8,1.5,8.5-0.2c-8.8-2-16.8,1.3-24.1-1.9c7.6-3.2,15.6-0.7,24.6-0.8
		C70.3,130,67.5,126.1,68.9,120.4c3.7,0.7,1.6,4.4,3.1,6.4c0.5,0.6,0.5,1.7,1.5,1.7c0.9,0,1.3-0.9,1.4-1.8c0.7-3.3,0.9-6.5-3.4-7.3
		c-1.7-0.4,1.5-3.7-1.7-2.5C68.4,117.4,69.2,119.2,68.9,120.4z M100,136.3c-0.6,0.1-1.2,0.2-1.8,0.3c0.1,0.2,0.2,0.5,0.2,0.5
		C98.9,136.9,99.5,136.6,100,136.3c0.6,0,1.2-0.2,1.8-0.3c-0.1-0.1-0.2-0.3-0.2-0.3C101,135.8,100.5,136.1,100,136.3z M101.1,138.4
		c0.3-0.1,0.6-0.1,0.9-0.3c0.3-0.2,1.1,0.5,0.8-0.5C102.2,137.9,101.7,138.2,101.1,138.4c-0.5,0.1-1.2,0.2-1.8,0.2
		c0,0.1,0.1,0.3,0.1,0.4C99.9,138.8,100.5,138.6,101.1,138.4z M68.1,106.7c-1.1-2.7-0.6-8.1-3.6-7.7c-5.6,0.7-1.6,6.6-3.2,10
		c-0.9,1.9,0.2,3.4,2.8,3.2C67.9,112,67.6,109.3,68.1,106.7z M102.9,139.7c0.1,0.1,0.1,0.2,0.3,0.3c0.1,0,0.3,0,0.5,0
		c-0.1-0.1-0.2-0.3-0.3-0.4C103.2,139.5,103.1,139.7,102.9,139.7z M72,138.7c0.1,0.1,0.2,0.2,0.3,0.2c0.1,0,0.3,0,0.5,0
		c-0.1-0.1-0.2-0.3-0.3-0.4C72.3,138.6,72.1,138.7,72,138.7z"/>
	<path class="st2" d="M32,173.7c-0.2-0.2-0.5-0.4-0.7-0.6c0-3.4,1.6-1.1,2.7-0.7c0.8,0.3,1.8,1.5,2.4,0c0.5-1.2-0.6-1.6-1.6-2
		c-1.2-0.5-2.4-1.1-3.5-1.8c-2.3-1.3-2.3-1.3-1.9-5c6.7,5.2,14.2,8.5,22.7,9.4c-3.1-2.7-7.6-3-10.7-5.9c1.8-1.4,4,0,6.2-2.3
		c-6.6-2.5-12.5-5.9-18.6-8c-5.4-1.9-5.9-4.8-6.7-9.9c2.4,1.8,4.1,3,5.7,4.5c2.3,2.1,4.2,4.9,7.9,3.9c0.8,0.4,1.6,0.8,2.4,1.2
		c0.2,1.4,0.6,2.7,2.6,2.1c0,0,0,0,0,0c5.8,2.8,11.2,7.3,18,7.1c5.3-0.2,9.5,2.1,14.1,3.8c-1.5-0.2-2.9,0.3-1,1.5
		c3.9,2.4,6.6,5.6,9.1,9.8c1.1-5.2-1-7.8-8.2-11.3c9.7,1.8,11.8,4.4,11.1,13.7c0,0.1,0.3,0.2,0.4,0.3c1.7,7.3-2.4,11.3-9.7,9.4
		c-2.1-0.5-4.2-0.4-6.4,0c-3.9,0.7-7.6,0.1-11.3-2.5c3.3-1.9,7.2,0.6,9.8-2.7c-3.8-0.1-7.3-0.8-10.7,0.4c-2.2,0.8-3.5-0.6-3.8-2
		c-0.8-4.3-3.3-5.6-7.4-5.8c-1.8-0.1-4.9-0.3-4.9-3.7c0-0.3,0-1.3-0.8-0.8C36,177.6,34.6,173.7,32,173.7z M59,178.6
		c-3.2-0.9-5.8-1.7-8.5-2.4c-1.1-0.3-1.9,0.1-2,1.4c0,0.9,0.4,1.4,1.4,1.6C52.7,180,55.5,180.2,59,178.6z"/>
	<path class="st2" d="M151.1,162.1c0.9,2.7-2.2,4.7-2.9,4.8c-4,0.8-4.6,4.5-6.4,6.9c-2.2,2.9-4.6,3.7-8.1,3.9
		c-6.2,0.3-12.5,0.5-18.4,3c6.7,0.4,13.4,0.1,20.4-1.3c-6.3,6.5-14.7,3.7-22,5.9c1.3,1.8,2.8,1,4.1,1.2c1.4,0.3,3,0,4.5,0
		c1.7,0,3.4-0.3,3.8,2.1c-0.5,0.3-1.1,0.5-1.6,0.8c-0.1-0.3-0.3-0.6-0.4-0.9c0.4-0.1,0.9-0.2,0.5-0.7c0-0.1-0.7,0.2-1,0.3
		c-4.3-0.6-7.2,2.5-10.6,4.2c-3.1,1.6-6.5,0.1-8.1-3c-2.1-4.4-2.8-8.8-1.7-14c-4.5,2.2-2.4,6.7-4.6,9.8c-1.5-9.1-0.8-10.6,7.2-13.4
		c6-2.1,10.7-6.2,15.4-10.3c0.5,0,1-0.1,1.6-0.1c5.3,2.8,9.1-0.9,13.3-3.1c0.3-0.3,0.5-0.5,0.8-0.8c7.1-0.9,12.8-4.4,17.4-9.7
		c0,0,0.2,0.2,0.2,0.2c1.4-0.7,2.8-1.4,5.1-2.5c-3.9,5.7-5.1,11.7-7.7,17.1c0,0-0.6-0.2-0.9-0.2c-0.4-1.3-1.4-1.1-2.3-0.9
		c-0.1,0-0.3,0.6-0.2,0.7C149.3,162.9,150.2,162.6,151.1,162.1z M128.4,164.7c8.3-1.5,16.9-2.6,23.3-9.2
		C143.6,157.6,136.5,162.3,128.4,164.7z M132.3,170c-0.1-0.4-0.2-0.9-0.3-1.3c-3.9-0.3-7.5,0.2-10.6,3.6
		C125.1,171.6,128.7,170.8,132.3,170z M126.1,174.1c4.6,1.9,8.4,0.4,12-1.5c-0.1-0.5-0.2-0.9-0.4-1.4
		C133.9,172.1,130,173.1,126.1,174.1z"/>
	<path class="st1" d="M32,173.7c2.5,0,4,4,7.1,1.9c0.8-0.5,0.8,0.4,0.8,0.8c-0.1,3.4,3.1,3.7,4.9,3.7c4.2,0.1,6.6,1.4,7.4,5.8
		c0.3,1.3,1.6,2.7,3.8,2c3.4-1.2,6.9-0.5,10.7-0.4c-2.7,3.3-6.5,0.8-9.8,2.7c3.7,2.6,7.4,3.2,11.3,2.5c2.2-0.4,4.2-0.5,6.4,0
		c7.3,1.9,11.4-2,9.7-9.4c0-0.1-0.4-0.2-0.4-0.3c0.7-9.3-1.4-11.8-11.1-13.7l0.1,0.1c-4.6-1.8-8.8-4-14.1-3.8
		c-6.8,0.2-12.1-4.3-18-7.1c6.1-0.5,11.7,2,17.5,3.2c5.1,1.1,9.9,4.1,15.3,3.4c1.6-0.2,2.6,0.1,3.3,1.4c0.9,1.6,2.5,2,4,2.7
		c2,1,5.6-0.2,6.1,2.2c1,5.3,5,10.7,2.8,15.7c-1.4,3.3-3.4,7.8-9.1,8.6c-9.5,1.4-18.5,1.7-26.8-4.1c-2.2-1.5-5.7-1.4-7.7-3.1
		c-4.6-3.8-10-6.8-13.9-11.4C31.7,176.3,32.1,174.8,32,173.7z"/>
	<path class="st1" d="M35.9,155.2c-3.8,1-5.6-1.8-7.9-3.9c-1.5-1.4-3.3-2.6-5.7-4.5c0.8,5,1.4,8,6.7,9.9c6.1,2.1,12,5.5,18.6,8
		c-2.2,2.2-4.4,0.9-6.2,2.3c3.1,2.9,7.6,3.2,10.7,5.9c-8.5-0.8-16-4.1-22.7-9.4c-0.5,3.6-0.5,3.6,1.9,5c1.1,0.6,2.3,1.3,3.5,1.8
		c0.9,0.4,2.1,0.8,1.6,2c-0.6,1.5-1.6,0.3-2.4,0c-1-0.3-2.6-2.6-2.7,0.7c-2.2,2.4-3.2,0.2-4.1-1.3c-5.3-8.1-7.4-17.4-9-26.7
		c-0.3-1.9,1.1-2.6,2.1-3.6c0.9-0.9,2.1-0.6,2.6,0.1c3.2,4.8,8.6,7.2,12.3,11.4C35.7,153.5,35.7,154.4,35.9,155.2z M33.7,163.6
		c0.9,0.8,2.2,2.2,3,0.9c0.9-1.4-1.6-0.8-2-1.8c-1.1-1.3-2.5-2.1-4.3-1.1C31.2,162.9,32.4,163.2,33.7,163.6z"/>
	<path class="st1" d="M133.6,102.1c3.2,1.8,5.4,4.1,5.3,8.2c-0.1,3.1,1.5,5.8,2.9,8.4c1.7,3.2,2.4,6.6,2.9,10
		c0.3,1.8-0.1,3.1-2.2,3.9c-6.7,2.4-13.5,4.3-20.7,4.7c0,0-0.1-0.1-0.1-0.1c-1.4-3.3,0.6-3.5,3.1-4c5.1-1,8.3-7,7.1-12
		c-0.9-4-2.3-7.8-3.7-11.6c-0.8-2.3-1.9-4.7-1.3-7.3l-0.1,0.1c5.4,2.6,8.4,7.3,7.9,12.8c-0.4,4.6,0.7,7.3,5,9.9
		c-1.1-4.2-2.1-7.8-3.1-11.4C135.7,109.8,133.9,106.1,133.6,102.1z"/>
	<path class="st2" d="M127.1,59.6c-3.2,0.3-2.6,4.3-5.5,5.7c-0.3-2.6-0.9-4.1-4.3-3.3c-4,1-5.4-1.5-3.7-5.9c0.7-1.9,0.1-6,3.1-5
		c2.2,0.7-0.9,3.6-0.8,5.6c0.1,1.1-1.7,2.1-0.5,3.2c1.5,1.3,2.6-1.1,2.9-1c3.5,0.8,5.2-1.6,7.5-3.4c1-0.7,4.3,0.9,5.9,2.2
		c1.5,1.2,0,3.2-1,4.3c-1.6,1.7-4,3.3-1.2,5.6c2.6,2.1,4.1-0.1,5.4-2.2c0.6-1.1,1.7-1.6,2.9-1.8c1.2-0.2,2.2-2,3.5-0.4
		c0.9,1.1,0.3,2.2-0.2,3.2c-0.4,0.7-0.7,1.5-0.9,2.3c-0.4,1.3-0.8,2.9,0.6,3.6c1.7,0.8,1.8-1,2.7-1.9c1-1.1,1.6-3.9,4.5-1.9
		c2.8,1.9,1.3,4,0.5,5.6c-1.1,2.1-2.9,4.1-4.7,5.6c-3,2.5-5.5-0.5-6.4-2.1c-2.1-3.7-4.8-6.1-8.5-7.9c-3.1-1.6-5-3.8-1.7-7.2
		C127.7,61.7,128.2,60.6,127.1,59.6z"/>
	<path class="st1" d="M124,188.4c0.1,0.3,0.3,0.6,0.4,0.9c0.1,3.6-1.4,5.5-5.3,5.3c-2.6-0.1-5.2,0.2-7.8,0.5
		c-3.8,0.4-7.9,1.8-9.6-3.6c-0.1-0.4-0.7-0.8-1.1-0.9c-2.2-0.6-5.4-0.6-5.8-3c-0.7-4.1-1.5-8.3,0.1-12.7c2.5-6.7,8.4-9.1,14-11.2
		c3.7-1.4,7.9-3.4,12.3-2.5c-4.7,4-9.3,8.2-15.4,10.3c-8,2.8-8.7,4.3-7.2,13.4c2.2-3.1,0-7.6,4.6-9.8c-1.1,5.1-0.5,9.6,1.7,14
		c1.6,3.2,5,4.7,8.1,3c3.4-1.8,6.3-4.8,10.6-4.2C123.7,188.1,123.9,188.3,124,188.4z"/>
	<path class="st1" d="M100,80.1c-0.3,3.7-0.6,7.5-4.4,9.6c-1.6,0.9-1.2,2.6-1.8,3.9c-1.2,2.5-4.2,2.9-5.6,0.9
		c-3.8-5.4-10.3-8.4-16.1-5.7c-4.4,2-8.7,1.6-13,1.6c-3.9-0.1-5.7,1-6.1,4.9c-0.2,1.7-1,3.3-1.7,5.5c-3.2-3.7,1.5-6.4-0.2-10.3
		c-3.6,7.5-3.9,15.4-7,22.8c-2.3-2.5-0.1-4,0-5.6c0-0.7,1-1.6-0.1-2.1c-1.2-0.5-1.5,0.6-2,1.6c-1.5,3.4-0.8,7.6-4,10.3
		C35.7,111,37.5,104.2,43,99c0.5,1,1,1.9,1.5,3c1.6-2.4,2.1-5.1,2.8-7.7c0.7-2.5-1-1.2-1.9-1.3c0.6-5.6,5.7-5,9-5.4
		c4.2-0.6,8.6-1,12.8-1.6c5.8-0.7,12.5-1.2,18.4,1.9c3,1.6,4.7,1.1,6.8-2.1C94,83.4,95.6,79.5,100,80.1z"/>
	<path class="st1" d="M37.9,118.4c1.2,4.5-1.4,8.6-1.6,13.7c3.1-2.6,2.5-6.1,3.7-8.8c0.9-2.2,0.3-4.8,2.3-6.7
		c0.1-0.1-0.1-0.6-0.2-0.9c7.7-0.4,3.8-7.4,6.3-10.8c0.3-0.4,0.5-0.8,0.8-1.2c0.1-0.1,0.3-0.1,0.7-0.2c1,1.9,0.3,3.8-0.2,5.6
		c-1.6,5.3-2.1,10.8-4.2,16c-1.4,3.6,0.7,6.9,2.1,10.2c-2.3,1.7-3.7-3-6-0.9c-1.1-0.3-2.1-1.3-3.7-0.4c1.3,0.4,2.4,0.8,3.4,1.1
		c2.1,0.7,4.2,1.6,6.3,0.2c2.6-0.3,4.5-0.3,6.8,2.2c2.6,2.8,7.7,2,11.6,2.9c0,0-0.1-0.1-0.1-0.1c0.8,0.3,1.6,0.6,2.4,0.9
		c-2.4,3.3-5.5,2.4-8.5,1.4c-7.4-2.4-14.5-5.8-22.5-5.4c-1,0-1.9-0.5-2.5-1.4c-1.6-2.1-0.1-5-1.8-7.1c-2.2-2.8,0.9-4,2-5.8
		C35.9,121.4,36.9,119.9,37.9,118.4z"/>
	<path class="st1" d="M102.7,91.1c-0.8-1.1-0.2-1.8,0.4-2.9c1.9-3.3,4.2-6.6,3.7-10.8l0.3-0.3c0.8-0.1,1.7,0.1,2.1-0.8
		c0.1-0.2,0-0.7-0.1-0.8c-1-0.5-1.3,0.6-2,0.8c-0.2-0.2-0.3-0.3-0.4-0.5c0.1-0.7,0.1-1.4,0.2-2.1c0.7-1.4,2.3-0.4,3.2-1.1
		c1.3,2.6,1.1,5.1,0.1,7.7c-0.6,1.4-1.8,3.1,0.1,4.5c1.6,1.1,3.4,1.2,5.2,0.5c1.5-0.6,2.6-1.4,4.5-1.2c12.4,1.5,11.1,0.1,13.8,12.2
		c-3.8,0.3-3.2-3.2-3.9-5.1c-1-2.6-2.2-3.3-4.3-2.4c-1.4,2.3,3.6,1.4,1.5,3.1c-2.5,1.9-0.9,3.5-0.5,5.2c0.4,1.8,0.9,3.5,0.4,5.3
		c0,0,0.1-0.1,0.1-0.1c-3.5-3.4-3.8-8.3-5.6-12.5c-0.8-1.9-1.5-2.9-3.4-2.3c-4.8,1.4-9.6,3-14.3,4.6C103.3,91.7,103,91.4,102.7,91.1
		z"/>
	<path class="st2" d="M41.8,72.6c-1.3,1.1-2.6,0.4-3.8,0.3c-2-0.1-3.3,0.4-3.2,2.7c0.2,2.3-0.7,4.1-3,4.5c-2,0.3-3.1-1.4-4.1-3.1
		c-0.7-1.3-2-2.2-2.9-3.4c-1.7-2.2-1.3-3.9,1.3-5.1c0.9-0.4,2.3,0.3,2.6-0.9c0.6-2.4,2-5,4.1-4.6c1.6,0.3,2.6,3.3,4,5
		c0.7,0.9,1.6,1.6,2.5,2.4C40.1,71.2,41,71.9,41.8,72.6z"/>
	<path class="st2" d="M64.4,51.9c1.3-1.4-0.4-3.2,1.3-4.3c3.8,2.5,2,7.5,5.2,10.8c-4-0.8-6.5,3.8-10.6,1.4c-1.4-0.8-2.9-0.7-1.7-2.9
		c0.5-0.9-0.2-1.9-0.4-2.8c-0.6-2.1-2.2-2-3.5-1.5c-1.3,0.4-1.2,1.4-0.5,2.8c0.7,1.3,0.5,2.9,0.8,4.9c-3.3-1.7-4.8-4-4-6.9
		c0.7-2.9,4.1-3.4,6.2-4.6C59.9,47.2,63,48.5,64.4,51.9z"/>
	<path class="st2" d="M126.9,102.4c0.5-1.8,0-3.5-0.4-5.3c-0.4-1.6-1.9-3.2,0.5-5.2c2.1-1.6-2.8-0.8-1.5-3.1
		c2.1-0.9,3.4-0.2,4.3,2.4c0.7,1.9,0.1,5.4,3.9,5.1c-0.1,0.3-0.1,0.5-0.1,0.8c-1.3,0.8-1.4,1.6,0,2.5c0,0.8-0.1,1.7-0.1,2.5
		c0.3,4,2,7.7,3,11.5c0.9,3.6,2,7.2,3.1,11.4c-4.3-2.5-5.4-5.2-5-9.9C135.3,109.6,132.2,104.9,126.9,102.4z"/>
	<path class="st2" d="M126.1,48.2c0.7-3,3.7-3.6,3.6-6.5c0-1.1,2-1.6,3.3-1.6c1.6,0,1.4,1.4,1.4,2.6c-0.1,3.1,2.7,1.9,3.2,1.4
		c2.6-2.8,4.1,0,5.8,1c1.2,0.7,1.7,2.5,0.4,3.4c-1.7,1.2-2.8,3.1-5.9,2.9C133.7,51,130.7,47.4,126.1,48.2z"/>
	<path class="st2" d="M69.7,34.4c-1.7,2.1,0.3,4.3-2.1,5.8c-0.5-1.9-0.9-3.5-1.3-5.2c-0.3-1.6-1.1-3.6,0.7-4.4
		c1.7-0.7,4.3-1.2,5.4,0.9c1.9,3.6,2.5,1.3,3.9-0.4c0.9-1,1.9-3.6,4.2-1.5c2.5,2.4,3.3,5.2,1.9,8.4c-1.1,2.4-3.1,1.7-4.6,0.8
		C75.2,37.3,71.8,37.3,69.7,34.4z M80.3,37.5c1.1-0.6,1-1.8,0.9-2.9c0-1.5-0.7-2.7-2.3-2.5c-1.6,0.2-1.3,1.7-1.3,2.8
		C77.5,36.4,78.5,37.2,80.3,37.5z"/>
	<path class="st2" d="M99.8,37c-0.6-0.2-1.4-0.3-1.9-0.7c-1.5-1.1-4-2.4-1.9-4.5c1.9-1.9,3.9-1.2,4.9,1.5c0.9,2.3,2.2,0.5,3.1,0
		c2.6-1.3,4.7-1.4,5.9,1.9c-1.6,1.3-3.3-2.3-4.7,0.2c-0.6,1.1-0.6,2.3-0.2,3.3c1,2.5,2.9-0.2,4.2,0.7c0.1,1.4-0.8,2.7-1.8,2.5
		c-3.7-0.7-7.3-2.4-11.3-1.6c-0.8,0.2-1.3-1.2-1-1.9C96.2,36.2,97.7,40,99.8,37z"/>
	<path class="st2" d="M43.2,60c0.6-1.3-2.1-2.6-0.3-3.4c2.3-1.1,2.1,2.6,4.4,2.7c0.8-1.4-1.2-2.4-0.4-4.4c4.1,2.4,5.4,6.1,6.5,10.1
		c-1.5,1-3.4-3.9-4.2,1c-0.4,2.2-4.2,0.8-6-0.2c-2-1.1-3.8-3.2-2.9-5.8c0.6-1.8,1.8,0.2,2.8,0.3c0.2,0.2,0.4,0.4,0.5,0.6
		c0.1-0.1,0.3-0.3,0.2-0.4C43.6,60.4,43.3,60.2,43.2,60z"/>
	<path class="st2" d="M63.4,153.1c1-1.9,1.6-3.2,2.6-4.9c2.1,3.7-0.5,6.5-0.5,9.4c0,0.9-1.3,1.2-2.4,1.4c-2.2,0.4,0.4-4.9-3.2-2.6
		c-2.9,1.9-3.2,0.8-2.2-1.9c0.2-0.6,0.1-1.4,0.5-1.9c1.2-1.5,0-4.3,2.5-4.9C61.7,147.4,62.2,148.4,63.4,153.1z"/>
	<path class="st2" d="M111.9,39c0.1-1.6-0.2-3.2,1.9-4.1c1.9-0.8,3.2-0.3,5,0.6c1.1,0.6,1.8,4,4.2,1.3c0.5-0.6,0.8,0.7,0.8,1.3
		c0,0.9,0.6,2.3-0.5,2.5c-2.4,0.4-3.8,2.4-5.8,3.2C113.6,45.3,111.8,43.7,111.9,39z M113.9,39.6c0.1,1-0.5,2.6,1.2,2.6
		c2-0.1,2.4-2.1,2.6-3.6c0.2-1-0.7-2.3-2-2.3C113.6,36.4,114,38.2,113.9,39.6z"/>
	<path class="st2" d="M43.9,145.8c0.8,1.9,4.4,3,1.9,5.7c-2.8,3-5.5,1.1-8.7-0.5c1.9-1.6,5.2-1.6,4-5.1c-0.4-1.1,0.6-2.9,2.1-2.9
		c2.1,0,4.2,0.6,6.3,1c0.1,0,0.3,1,0.1,1.4c-0.2,0.3-0.8,0.6-1.2,0.6C47,146.1,45.9,144.8,43.9,145.8z"/>
	<path class="st2" d="M54.6,157.6c-1.9-2.8-3.6-5.2-7.7-1.5c0.9-4.6,3.7-6.7,5.2-9.5c0.5-0.9,1.3-1,2.1-0.8c1.1,0.3,1.4,1.2,1.3,2.3
		C55.2,151.2,54.9,154.4,54.6,157.6z"/>
	<path class="st2" d="M106.7,154.2c-0.9,2.6,0.8,3.9,2.9,4.9c-3.9,2.9-5.7,2.4-6.6-1.6c-0.3-1.3,0.8-3.5-2.2-3.4
		c-1.1,0-0.9-1.2-0.2-1.8c1.8-1.4,3.5-3.1,6.1-2.7c0.8,0.1,1.7,0.1,1.8,1.2c0.1,1.4-1.1,1.4-2,1.7c-0.7-0.1-1.4,0.1-1.3,0.9
		C105.3,154.2,106,154.2,106.7,154.2z"/>
	<path class="st2" d="M86.4,150.3C86.4,150.3,86.5,150.3,86.4,150.3c-1.1,3.4-2.3,6.8-3.3,10.2c-0.3,1-0.6,1.8-1.9,1.7
		c-1.6,0-1-1.1-1.3-2c-1-3.1-1.6-6.2-1.7-9.8c1,0.5,1.8,0.6,2,1.1c1.4,4.1,2.7,3.2,4.2,0C84.7,150.9,85.7,150.7,86.4,150.3z"/>
	<path class="st2" d="M99.5,46.6c2.8,1.5,2.6,4.4,3.1,6.9c0.4,1.7-0.9,2.9-2.3,3.4c-1.2,0.4-2.9,0.7-3.8,0.1c-1.5-0.9-0.7-2.7-0.2-4
		C97.3,50.8,97.1,48.1,99.5,46.6z"/>
	<path class="st2" d="M79.3,57.1c-1.9-0.8-3.5,2.5-5.3,1.1c-1.8-1.4,0.4-3.7-0.1-5.6c-0.3-1.4-0.3-2.9-0.6-4.4
		c-0.2-1-0.7-2.1,0.6-2.5c1.2-0.4,2.9,0.2,2.7,1.4C75.9,50.9,79.6,53.2,79.3,57.1z"/>
	<path class="st2" d="M116.3,155.7c-2.8,1.7-6.3,3.1-6.2-2.8c0-1.5,0.3-3.5,2.4-3.6c2.6-0.2,6.6,3.8,6.5,6.1
		C118.8,158,117.7,156.3,116.3,155.7z"/>
	<path class="st2" d="M51.5,43.8c-1.9-1.8-1.4-3.6-1.7-5.2c-0.2-1.3-1.7-2.9,0.3-3.9c2.2-1.1,1.7,2.1,3.2,2.2
		c1.5-0.7-0.1-2.5,1.5-3.4c1.3,2.3,2.3,5,1.6,7.3C56.1,42.1,52,40.4,51.5,43.8z"/>
	<path class="st1" d="M154.4,147.7c-4.6,5.3-10.3,8.8-17.4,9.7c0.1-1.2-0.9-2.6,1.2-3.1c4.8-1.1,9.3-3,12.9-6.5
		C151.9,147,153.2,147.2,154.4,147.7z"/>
	<path class="st2" d="M135.2,150.9c2.8,1.6,0.8,2-0.7,2.6c-1.4,0.6-2.7,1.7-3.3-0.8c-0.3-1.4-0.9-2.9-0.9-4.3c0-1.4-1.9-3.7,0.7-4
		c2.5-0.3,4.8,1,4.3,4.4c-0.7,0.4-2.1,0.1-2,1.3C133.4,150.9,134.5,150.9,135.2,150.9z"/>
	<path class="st2" d="M46.5,36.5c-0.9,1.3-3.2,0.2-3.3,2.2c0.6,1.5,2.5,0,3.3,1.3c-0.6,1.6-3.7,1.2-3.1,4.1
		c-1.7-2.2-4.6-3.8-2.9-6.6C41.6,35.9,43.9,34.6,46.5,36.5z"/>
	<path class="st2" d="M61.7,43.1c-1.1-4.3,0.3-8.9-4.8-11.1C62.5,31,64.1,35,61.7,43.1z"/>
	<path class="st2" d="M97.7,159.8c-5.5-1.3-2.4-5.5-3.4-8.3c0-0.1,1-0.7,1.1-0.6c0.5,0.4,1.1,0.9,1.2,1.5
		C97,154.9,96.3,157.5,97.7,159.8z"/>
	<path class="st2" d="M106.6,59.8c-2.6-3.3-1.9-9.5,0.5-11.1c0.7-0.5,1.3-0.4,1.8,0c0.4,0.3,1.1,0.8,0.2,1.6
		C106.3,52.7,107.1,56,106.6,59.8z"/>
	<path class="st2" d="M45.5,93.1c0.9,0.1,2.6-1.2,1.9,1.3c-0.8,2.6-1.2,5.3-2.8,7.7c-0.6-1.1-1.1-2.1-1.5-3c1.6-1.2,0.7-3.1,1.2-4.6
		c0,0,0.3-0.2,0.3-0.2l-0.1-0.3l-0.1-0.3c0,0-0.4,0-0.4,0c1.3,0.5,1.7,0.1,1-1.2l0,0.5L45.5,93.1z"/>
	<path class="st2" d="M81.4,56.4c3.3-0.6,2.3-4.1,4-5.8C87.7,55,86.7,56.6,81.4,56.4z"/>
	<path class="st1" d="M136.2,158.2c-4.2,2.1-8,5.8-13.3,3.1C127.4,160.8,131.2,156.8,136.2,158.2z"/>
	<path class="st2" d="M89.2,152.6c0.9,0.2,1.1,0.2,1.2,0.3c1.3,2.2,1.8,4.5,0.8,6.9c-0.1,0.3-1.1,0.5-1.2,0.4
		C88,157.9,89.5,155.3,89.2,152.6z"/>
	<path class="st2" d="M125.2,153.4c-2.7-2.2-2.9-3.8,0.2-5.3C125.8,149.8,126.3,151.4,125.2,153.4z"/>
	<path class="st2" d="M34.8,46.8c-2.6-1.4-3.7-3.2-1.4-5.4C33.9,43.2,34.3,45,34.8,46.8z"/>
	<path class="st2" d="M110.2,72.7c-1,0.7-2.5-0.2-3.2,1.1c-0.1-0.4-0.1-0.8-0.2-1.2c0.9-1.1,1.9-2.2,2.8-3.2c0.3,0.6,0.5,0.5,0.8,0
		c0.8,1.2,0.2,2.4,0.1,3.5L110.2,72.7z"/>
	<path class="st2" d="M68.3,141.2c-0.8-0.3-1.6-0.6-2.4-0.9c2.6,0.6,5.4,0,7.9,1.5c-1.5,1.2-2.7-0.9-4.1-0.5
		C69.2,141.2,68.7,141.2,68.3,141.2z"/>
	<path class="st1" d="M110.5,72.9c0.1-1.2,0.6-2.4-0.1-3.5c2.3-0.2,2.8,1.7,2.7,3.1C113,73.5,111.4,73,110.5,72.9z"/>
	<path class="st1" d="M109.5,69.4c-0.9,1.1-1.9,2.2-2.8,3.2C104.9,69.2,107.1,69.2,109.5,69.4z"/>
	<path class="st1" d="M135.2,150.9c-0.8,0-1.8,0-1.9-0.8c-0.1-1.3,1.2-1,2-1.3C135.2,149.5,135.2,150.2,135.2,150.9z"/>
	<path class="st1" d="M133.7,99.6c-1.4-0.8-1.3-1.7,0-2.5C134.7,98,135,98.8,133.7,99.6z"/>
	<path class="st1" d="M40.8,158.5c-1.9,0.6-2.3-0.6-2.6-2.1C39.8,156.3,41.2,156.3,40.8,158.5z"/>
	<path class="st1" d="M106.7,154.2c-0.7,0-1.4,0-1.4-0.9c0-0.9,0.6-1,1.3-0.9C106.6,153,106.6,153.6,106.7,154.2z"/>
	<path class="st2" d="M56,62.3c0.3,0.1,0.6,0.2,0.9,0.2c-0.1,0.1-0.2,0.2-0.3,0.3C56.4,62.6,56.2,62.4,56,62.3L56,62.3z"/>
	<path class="st2" d="M56.1,62.2c-0.5-0.1-0.9-0.1-1.4-0.2c0.1-0.1,0.1-0.4,0.2-0.4C55.5,61.4,55.8,61.7,56.1,62.2
		C56,62.3,56.1,62.2,56.1,62.2z"/>
	<path class="st1" d="M45.1,92.4c0.6,1.2,0.3,1.6-1,1.2C44.4,93.2,44.8,92.8,45.1,92.4z"/>
	<path class="st1" d="M44.5,93.9l0.1,0.3c0,0-0.3,0.2-0.3,0.2c-0.2-0.2-0.4-0.4-0.5-0.6C44,93.8,44.2,93.9,44.5,93.9z"/>
	<path class="st1" d="M106.8,77.5c-0.9-0.1-1.3-0.5-0.8-1.4c0.2-0.1,0.5-0.1,0.7-0.1c0.1,0.2,0.3,0.4,0.4,0.5c0.1,0.2,0.1,0.5,0,0.7
		L106.8,77.5z"/>
	<path class="st0" d="M161.9,145c5,2.6,5.7,5.3,3,8.4c-1.2,1.4-0.8,2.8-1,4.2c-0.2,1.7-0.3,3.7-2.7,3.3c-2.5-0.4-2.8-2.7-1.8-4.3
		C161.5,153.3,162.9,149.9,161.9,145z"/>
	<path class="st1" d="M99.1,88.6c-0.2,5.1-2.4,7.9-4.9,10.6C94.9,95.7,96.5,92.6,99.1,88.6z"/>
	<path class="st2" d="M103.7,92c4.8-1.5,9.5-3.1,14.3-4.6c1.9-0.6,2.6,0.4,3.4,2.3c1.8,4.2,2.1,9.1,5.6,12.5c-0.6,2.6,0.5,5,1.3,7.3
		c1.3,3.8,2.7,7.6,3.7,11.6c1.2,5-2,11-7.1,12c-2.5,0.5-4.5,0.7-3.1,4c-3,0.1-5.8,1.7-8.8,1.1l0.1,0.1c0.4-1.5,2.5-0.5,3.3-2
		c-3-0.6-5.6-0.3-8,0.8c-2.4,1-2.2-1.1-2.3-1.9c-0.3-2.1,1.3-0.7,1.9-0.7c4.8-0.1,9.6-0.8,14.2-2c1.7-0.4,3.7-0.5,4.9-3.5
		c-10.9,4.8-22.9,1.4-33,7.4c-2.4,1.4-3-1-3.6-2.2c-0.6-1.2-0.1-2.8-0.1-4.7c-4.2,1.9-1.1,5.5-2.7,7.8c-3.2-0.5-5.7-3.3-9.2-3
		c0.2-1.5,0.8-2.5,1.7-3.5c0.6-0.6,0.7-1.8,0.9-2.7c0.5-2.6-3.3-0.4-3.2-2.9c0.1-1.8,2.8-2.4,2-4.7c-0.5-1.4,0-2.1,1.1-2
		c5.7,0.7,7.3-3.6,9.2-7.5c0.4-0.8,0.5-1.4,1.4-1.7C99.4,106.3,101.1,98.8,103.7,92z M103.9,123.4c2.8-3.7,7.3-3.6,11.1-4.8
		c0.4-0.1,1.5,0.9,1.6,1.6c0.3,1.2-0.9,1-1.7,1.2c-2.2,0.6-1.6,1.9-0.9,3.4c0.6,1.3,1,3.5,2.8,2.4c3.7-2.1,7.8-2.5,11.7-3.9
		c1.1-0.4,1.6-1.1,1.4-2.2c-0.2-1.1-0.1-2.8-1.6-2.6c-3.5,0.5-3.8-2.3-5.2-4.2c-4-5.4-6.5-11.9-11.4-16.8c-1-1-1.3-4-3.2-2.7
		c-1.7,1.2-4.6,0.7-5.1,4.4c-1.2,9.4-3.7,18.6-7.9,27.1c-0.7,1.5-1.1,3.7-0.4,4.2c4.4,2.6,8.3-1.6,12.7-1.5c1.6,0,2.4-1.3,2.2-3.2
		C109.7,120.3,105.8,125.4,103.9,123.4z"/>
	<path class="st0" d="M68.1,106.7c-0.5,2.6-0.2,5.3-3.9,5.5c-2.6,0.1-3.7-1.3-2.8-3.2c1.6-3.3-2.4-9.3,3.2-10
		C67.5,98.6,67,104.1,68.1,106.7z"/>
	<path class="st0" d="M68.9,120.4c0.3-1.2-0.5-3.1,1-3.6c3.1-1.1-0.1,2.2,1.7,2.5c4.3,0.9,4,4.1,3.4,7.3c-0.2,0.8-0.5,1.7-1.4,1.8
		c-1,0-1-1.1-1.5-1.7C70.5,124.8,72.6,121.1,68.9,120.4C68.8,120.4,68.9,120.4,68.9,120.4z"/>
	<path class="st2" d="M112.9,138.3c-1.4,2.1-4,1.5-6.2,3.2C107.6,136.6,111,139.2,112.9,138.3C113,138.4,112.9,138.3,112.9,138.3z"
		/>
	<path class="st2" d="M101.2,138.5c0.5-0.3,1-0.6,1.6-0.9c0.3,1-0.5,0.3-0.8,0.5C101.7,138.3,101.4,138.3,101.2,138.5
		C101.1,138.4,101.2,138.5,101.2,138.5z"/>
	<path class="st0" d="M100,136.4c-0.5,0.2-1.1,0.5-1.6,0.7c0,0-0.2-0.3-0.2-0.5C98.8,136.5,99.4,136.4,100,136.4L100,136.4z"/>
	<path class="st0" d="M100,136.3c0.5-0.2,1-0.4,1.6-0.6c0,0,0.2,0.2,0.2,0.3C101.2,136.1,100.6,136.2,100,136.3
		C100,136.4,100,136.3,100,136.3z"/>
	<path class="st0" d="M102.9,139.7c0.1,0,0.3-0.2,0.4-0.1c0.1,0.1,0.2,0.3,0.3,0.4c-0.2,0-0.3,0-0.5,0
		C103.1,140,103,139.8,102.9,139.7z"/>
	<path class="st2" d="M101.1,138.4c-0.6,0.2-1.1,0.4-1.7,0.6c0-0.1-0.1-0.3-0.1-0.4C99.9,138.6,100.5,138.5,101.1,138.4
		C101.2,138.5,101.1,138.4,101.1,138.4z"/>
	<path class="st0" d="M72,138.7c0.1,0,0.3-0.2,0.4-0.1c0.1,0.1,0.2,0.3,0.3,0.4c-0.2,0-0.3,0-0.5,0C72.1,139,72.1,138.8,72,138.7z"
		/>
	<path class="st1" d="M72.9,169.3c7.2,3.5,9.3,6.1,8.2,11.3c-2.5-4.2-5.2-7.4-9.1-9.8C70,169.7,71.5,169.1,72.9,169.3
		C72.9,169.4,72.9,169.3,72.9,169.3z"/>
	<path class="st1" d="M59,178.6c-3.5,1.5-6.3,1.4-9.1,0.7c-1-0.2-1.4-0.7-1.4-1.6c0.1-1.3,0.9-1.7,2-1.4
		C53.2,176.9,55.8,177.7,59,178.6z"/>
	<path class="st1" d="M128.4,164.7c8.1-2.5,15.2-7.1,23.3-9.2C145.2,162.1,136.7,163.3,128.4,164.7z"/>
	<path class="st1" d="M132.3,170c-3.6,0.8-7.2,1.6-10.9,2.4c3-3.5,6.7-3.9,10.6-3.6C132.1,169.2,132.2,169.6,132.3,170z"/>
	<path class="st1" d="M126.1,174.1c3.9-1,7.8-1.9,11.7-2.9c0.1,0.5,0.2,0.9,0.4,1.4C134.5,174.5,130.7,175.9,126.1,174.1z"/>
	<path class="st1" d="M151.1,162.1c-0.9,0.5-1.8,0.8-2.6,0c-0.1-0.1,0.1-0.7,0.2-0.7c1-0.2,1.9-0.4,2.3,0.9
		C151,162.2,151.1,162.1,151.1,162.1z"/>
	<path class="st1" d="M123.6,188c0.3-0.1,1-0.4,1-0.3c0.3,0.6-0.1,0.6-0.5,0.7C123.9,188.3,123.7,188.1,123.6,188z"/>
	<path class="st2" d="M33.7,163.6c-1.2-0.4-2.5-0.7-3.3-2c1.8-1,3.1-0.2,4.3,1.1C34.3,163,34,163.3,33.7,163.6z"/>
	<path class="st2" d="M34.6,162.7c0.4,1,2.9,0.4,2,1.8c-0.8,1.3-2.1-0.1-3-0.9C34,163.3,34.3,163,34.6,162.7z"/>
	<path class="st0" d="M41.4,134.4c2.4-2.1,3.7,2.6,6,0.9c0,0,0.1,0,0.1,0c-2.1,1.4-4.2,0.5-6.3-0.2
		C41.2,134.9,41.3,134.6,41.4,134.4z"/>
	<path class="st2" d="M41.4,134.4c-0.1,0.2-0.2,0.5-0.2,0.7c-1-0.4-2.1-0.7-3.4-1.1C39.4,133.1,40.3,134.1,41.4,134.4z"/>
	<path class="st2" d="M107.1,77.2c0.1-0.2,0.1-0.5,0-0.7c0.7-0.2,1-1.4,2-0.8c0.1,0.1,0.2,0.6,0.1,0.8
		C108.8,77.2,107.9,77.1,107.1,77.2z"/>
	<path class="st1" d="M80.3,37.5c-1.8-0.3-2.7-1.1-2.7-2.6c0-1.1-0.3-2.6,1.3-2.8c1.7-0.2,2.3,1,2.3,2.5
		C81.2,35.7,81.4,37,80.3,37.5z"/>
	<path class="st0" d="M43.2,60c0.2,0.2,0.4,0.3,0.6,0.5c0,0-0.1,0.2-0.2,0.4c-0.2-0.2-0.4-0.4-0.5-0.6C43,60.3,43.2,60,43.2,60z"/>
	<path class="st0" d="M113.9,39.6c0.1-1.4-0.3-3.2,1.9-3.2c1.3,0,2.2,1.2,2,2.3c-0.3,1.5-0.6,3.5-2.6,3.6
		C113.4,42.3,114,40.7,113.9,39.6z"/>
	<path class="st1" d="M103.9,123.4c1.9,2.1,5.8-3,6.2,2.4c0.1,1.9-0.6,3.3-2.2,3.2c-4.4-0.1-8.3,4.1-12.7,1.5
		c-0.7-0.4-0.4-2.6,0.4-4.2c4.2-8.6,6.6-17.8,7.9-27.1c0.5-3.7,3.4-3.2,5.1-4.4c1.9-1.4,2.1,1.6,3.2,2.7c4.8,4.9,7.4,11.3,11.4,16.8
		c1.4,1.9,1.8,4.7,5.2,4.2c1.5-0.2,1.5,1.5,1.6,2.6c0.2,1.2-0.3,1.8-1.4,2.2c-3.9,1.4-8,1.8-11.7,3.9c-1.9,1.1-2.2-1.1-2.8-2.4
		c-0.7-1.5-1.3-2.8,0.9-3.4c0.7-0.2,1.9-0.1,1.7-1.2c-0.1-0.6-1.2-1.7-1.6-1.6C111.2,119.7,106.7,119.6,103.9,123.4z M112.7,109.2
		c-4.8-1.8-5.7-0.9-5.6,6c2-0.7,4-1.4,6-2.1c0.5,4.3,5.7,3.4,7.2,6.6c0.3,0.7,0.9,1.6,1.9,1.1c1.1-0.5,1.1-1.7,0.7-2.6
		c-2-4.3-5-7.8-9-10.4C113.3,107.5,112.9,108.5,112.7,109.2z M110.3,99.7c-0.4-0.9-0.6-2-1.8-2c-1,0-1.3,0.7-1.4,1.6
		c0,1.2,0.5,1.8,1.7,1.8C109.8,101.1,110.5,100.8,110.3,99.7z"/>
	<path class="st0" d="M112.7,109.2c0.2-0.6,0.6-1.7,1.1-1.3c4,2.6,7,6.1,9,10.4c0.4,0.9,0.4,2.1-0.7,2.6c-1,0.5-1.5-0.3-1.9-1.1
		c-1.5-3.2-6.7-2.3-7.2-6.6C112.6,111.9,112.2,110.6,112.7,109.2z"/>
	<path class="st2" d="M112.7,109.2c-0.5,1.4-0.2,2.7,0.4,4c-2,0.7-4,1.4-6,2.1C107,108.3,107.9,107.4,112.7,109.2z"/>
	<path class="st0" d="M110.3,99.7c0.1,1.1-0.5,1.4-1.5,1.4c-1.2,0-1.8-0.6-1.7-1.8c0-0.9,0.3-1.7,1.4-1.6
		C109.7,97.7,110,98.8,110.3,99.7z"/>
</g>
</svg>
